{
  "accessors": [
    {
      "bufferView": 2,
      "componentType": 5126,
      "count": 65532,
      "max": [
        0.1738480031490326,
        0.08025100082159042,
        0.2554439902305603
      ],
      "min": [
        -0.07458200305700302,
        -0.1426199972629547,
        -0.43788498640060425
      ],
      "type": "VEC3"
    },
    {
      "bufferView": 2,
      "byteOffset": 786384,
      "componentType": 5126,
      "count": 65532,
      "max": [
        0.999985933303833,
        0.9999817609786987,
        0.9999149441719055
      ],
      "min": [
        -0.9998548030853271,
        -0.9999971389770508,
        -0.9999168515205383
      ],
      "type": "VEC3"
    },
    {
      "bufferView": 3,
      "componentType": 5126,
      "count": 65532,
      "max": [
        0.999997615814209,
        0.9999940991401672,
        0.9999998807907104,
        1.0
      ],
      "min": [
        -0.9999337196350098,
        -0.9999938607215881,
        -0.9999964833259583,
        -1.0
      ],
      "type": "VEC4"
    },
    {
      "bufferView": 1,
      "componentType": 5126,
      "count": 65532,
      "max": [
        0.9995999932289124,
        0.9995989799499512
      ],
      "min": [
        0.00039999998989515007,
        0.0004010200500488281
      ],
      "type": "VEC2"
    },
    {
      "bufferView": 1,
      "byteOffset": 524256,
      "componentType": 5126,
      "count": 65532,
      "max": [
        0.9995999932289124,
        0.9995989799499512
      ],
      "min": [
        0.00039999998989515007,
        0.0004010200500488281
      ],
      "type": "VEC2"
    },
    {
      "bufferView": 1,
      "byteOffset": 1048512,
      "componentType": 5126,
      "count": 65532,
      "max": [
        0.9995999932289124,
        0.9995989799499512
      ],
      "min": [
        0.00039999998989515007,
        0.0004010200500488281
      ],
      "type": "VEC2"
    },
    {
      "bufferView": 1,
      "byteOffset": 1572768,
      "componentType": 5126,
      "count": 65532,
      "max": [
        0.9995999932289124,
        0.9995989799499512
      ],
      "min": [
        0.00039999998989515007,
        0.0004010200500488281
      ],
      "type": "VEC2"
    },
    {
      "bufferView": 0,
      "componentType": 5125,
      "count": 319257,
      "type": "SCALAR"
    },
    {
      "bufferView": 2,
      "byteOffset": 1572768,
      "componentType": 5126,
      "count": 65532,
      "max": [
        0.1611109972000122,
        0.09130100160837173,
        0.40567800402641296
      ],
      "min": [
        -0.1738480031490326,
        -0.1453080028295517,
        -0.5478349924087524
      ],
      "type": "VEC3"
    },
    {
      "bufferView": 2,
      "byteOffset": 2359152,
      "componentType": 5126,
      "count": 65532,
      "max": [
        0.9999841451644897,
        0.9999943971633911,
        0.9999284744262695
      ],
      "min": [
        -0.9999687671661377,
        -0.9999836683273315,
        -0.9997525811195374
      ],
      "type": "VEC3"
    },
    {
      "bufferView": 3,
      "byteOffset": 1048512,
      "componentType": 5126,
      "count": 65532,
      "max": [
        0.9999939799308777,
        0.9999734163284302,
        0.9999842047691345,
        1.0
      ],
      "min": [
        -0.9999991059303284,
        -0.9999514222145081,
        -0.999999463558197,
        -1.0
      ],
      "type": "VEC4"
    },
    {
      "bufferView": 1,
      "byteOffset": 2097024,
      "componentType": 5126,
      "count": 65532,
      "max": [
        0.9995999932289124,
        0.9995989799499512
      ],
      "min": [
        0.00039999998989515007,
        0.0004010200500488281
      ],
      "type": "VEC2"
    },
    {
      "bufferView": 1,
      "byteOffset": 2621280,
      "componentType": 5126,
      "count": 65532,
      "max": [
        0.9995999932289124,
        0.9995989799499512
      ],
      "min": [
        0.00039999998989515007,
        0.0004010200500488281
      ],
      "type": "VEC2"
    },
    {
      "bufferView": 1,
      "byteOffset": 3145536,
      "componentType": 5126,
      "count": 65532,
      "max": [
        0.9995999932289124,
        0.9995989799499512
      ],
      "min": [
        0.00039999998989515007,
        0.0004010200500488281
      ],
      "type": "VEC2"
    },
    {
      "bufferView": 1,
      "byteOffset": 3669792,
      "componentType": 5126,
      "count": 65532,
      "max": [
        0.9995999932289124,
        0.9995989799499512
      ],
      "min": [
        0.00039999998989515007,
        0.0004010200500488281
      ],
      "type": "VEC2"
    },
    {
      "bufferView": 0,
      "byteOffset": 1277028,
      "componentType": 5125,
      "count": 315762,
      "type": "SCALAR"
    },
    {
      "bufferView": 2,
      "byteOffset": 3145536,
      "componentType": 5126,
      "count": 65532,
      "max": [
        0.06403999775648117,
        0.14478200674057007,
        0.5840839743614197
      ],
      "min": [
        -0.09514900296926498,
        -0.09500899910926819,
        -0.5819600224494934
      ],
      "type": "VEC3"
    },
    {
      "bufferView": 2,
      "byteOffset": 3931920,
      "componentType": 5126,
      "count": 65532,
      "max": [
        0.9999963045120239,
        0.9999243021011353,
        0.9999998807907104
      ],
      "min": [
        -0.9999943971633911,
        -0.9999932050704956,
        -0.999521791934967
      ],
      "type": "VEC3"
    },
    {
      "bufferView": 3,
      "byteOffset": 2097024,
      "componentType": 5126,
      "count": 65532,
      "max": [
        0.9999916553497314,
        0.9999939203262329,
        0.999975323677063,
        1.0
      ],
      "min": [
        -0.9999514222145081,
        -0.9999768137931824,
        -0.9999918937683105,
        -1.0
      ],
      "type": "VEC4"
    },
    {
      "bufferView": 1,
      "byteOffset": 4194048,
      "componentType": 5126,
      "count": 65532,
      "max": [
        0.9995999932289124,
        0.9995989799499512
      ],
      "min": [
        0.00039999998989515007,
        0.0004010200500488281
      ],
      "type": "VEC2"
    },
    {
      "bufferView": 1,
      "byteOffset": 4718304,
      "componentType": 5126,
      "count": 65532,
      "max": [
        0.9995999932289124,
        0.9995989799499512
      ],
      "min": [
        0.00039999998989515007,
        0.0004010200500488281
      ],
      "type": "VEC2"
    },
    {
      "bufferView": 1,
      "byteOffset": 5242560,
      "componentType": 5126,
      "count": 65532,
      "max": [
        0.9995999932289124,
        0.9995989799499512
      ],
      "min": [
        0.00039999998989515007,
        0.0004010200500488281
      ],
      "type": "VEC2"
    },
    {
      "bufferView": 1,
      "byteOffset": 5766816,
      "componentType": 5126,
      "count": 65532,
      "max": [
        0.9995999932289124,
        0.9995989799499512
      ],
      "min": [
        0.00039999998989515007,
        0.0004010200500488281
      ],
      "type": "VEC2"
    },
    {
      "bufferView": 0,
      "byteOffset": 2540076,
      "componentType": 5125,
      "count": 319269,
      "type": "SCALAR"
    },
    {
      "bufferView": 2,
      "byteOffset": 4718304,
      "componentType": 5126,
      "count": 65532,
      "max": [
        0.06394000351428986,
        0.14478200674057007,
        0.5840830206871033
      ],
      "min": [
        -0.17345799505710602,
        -0.0926240012049675,
        -0.5652440190315247
      ],
      "type": "VEC3"
    },
    {
      "bufferView": 2,
      "byteOffset": 5504688,
      "componentType": 5126,
      "count": 65532,
      "max": [
        0.9999736547470093,
        0.9999977350234985,
        0.9999997615814209
      ],
      "min": [
        -0.9999984502792358,
        -0.9999978542327881,
        -0.9997791647911072
      ],
      "type": "VEC3"
    },
    {
      "bufferView": 3,
      "byteOffset": 3145536,
      "componentType": 5126,
      "count": 65532,
      "max": [
        0.9998161196708679,
        0.9999238848686218,
        0.9999539256095886,
        1.0
      ],
      "min": [
        -0.9999942779541016,
        -0.9999939203262329,
        -0.9999995231628418,
        -1.0
      ],
      "type": "VEC4"
    },
    {
      "bufferView": 1,
      "byteOffset": 6291072,
      "componentType": 5126,
      "count": 65532,
      "max": [
        0.9995999932289124,
        0.9995989799499512
      ],
      "min": [
        0.00039999998989515007,
        0.0004010200500488281
      ],
      "type": "VEC2"
    },
    {
      "bufferView": 1,
      "byteOffset": 6815328,
      "componentType": 5126,
      "count": 65532,
      "max": [
        0.9995999932289124,
        0.9995989799499512
      ],
      "min": [
        0.00039999998989515007,
        0.0004010200500488281
      ],
      "type": "VEC2"
    },
    {
      "bufferView": 1,
      "byteOffset": 7339584,
      "componentType": 5126,
      "count": 65532,
      "max": [
        0.9995999932289124,
        0.9995989799499512
      ],
      "min": [
        0.00039999998989515007,
        0.0004010200500488281
      ],
      "type": "VEC2"
    },
    {
      "bufferView": 1,
      "byteOffset": 7863840,
      "componentType": 5126,
      "count": 65532,
      "max": [
        0.9995999932289124,
        0.9995989799499512
      ],
      "min": [
        0.00039999998989515007,
        0.0004010200500488281
      ],
      "type": "VEC2"
    },
    {
      "bufferView": 0,
      "byteOffset": 3817152,
      "componentType": 5125,
      "count": 315195,
      "type": "SCALAR"
    },
    {
      "bufferView": 2,
      "byteOffset": 6291072,
      "componentType": 5126,
      "count": 48444,
      "max": [
        0.049070000648498535,
        0.09850600361824036,
        -0.07884600013494492
      ],
      "min": [
        -0.11264800280332565,
        -0.09630200266838074,
        -0.5893700122833252
      ],
      "type": "VEC3"
    },
    {
      "bufferView": 2,
      "byteOffset": 6872400,
      "componentType": 5126,
      "count": 48444,
      "max": [
        0.9999972581863403,
        0.9999532699584961,
        0.9998278617858887
      ],
      "min": [
        -0.9999904632568359,
        -0.9996212720870972,
        -0.9999850988388062
      ],
      "type": "VEC3"
    },
    {
      "bufferView": 3,
      "byteOffset": 4194048,
      "componentType": 5126,
      "count": 48444,
      "max": [
        0.9999608397483826,
        0.9999015927314758,
        0.9999731183052063,
        1.0
      ],
      "min": [
        -0.9999892711639404,
        -0.9999504685401917,
        -0.9999786615371704,
        -1.0
      ],
      "type": "VEC4"
    },
    {
      "bufferView": 1,
      "byteOffset": 8388096,
      "componentType": 5126,
      "count": 48444,
      "max": [
        0.9995999932289124,
        0.9995989799499512
      ],
      "min": [
        0.00039999998989515007,
        0.0004010200500488281
      ],
      "type": "VEC2"
    },
    {
      "bufferView": 1,
      "byteOffset": 8775648,
      "componentType": 5126,
      "count": 48444,
      "max": [
        0.9995999932289124,
        0.9995989799499512
      ],
      "min": [
        0.00039999998989515007,
        0.0004010200500488281
      ],
      "type": "VEC2"
    },
    {
      "bufferView": 1,
      "byteOffset": 9163200,
      "componentType": 5126,
      "count": 48444,
      "max": [
        0.9995999932289124,
        0.9995989799499512
      ],
      "min": [
        0.00039999998989515007,
        0.0004010200500488281
      ],
      "type": "VEC2"
    },
    {
      "bufferView": 1,
      "byteOffset": 9550752,
      "componentType": 5126,
      "count": 48444,
      "max": [
        0.9995999932289124,
        0.9995989799499512
      ],
      "min": [
        0.00039999998989515007,
        0.0004010200500488281
      ],
      "type": "VEC2"
    },
    {
      "bufferView": 0,
      "byteOffset": 5077932,
      "componentType": 5125,
      "count": 228261,
      "type": "SCALAR"
    }
  ],
  "asset": {
    "extras": {
      "author": "ARTEL_3D (https://sketchfab.com/artel_3D)",
      "license": "CC-BY-4.0 (http://creativecommons.org/licenses/by/4.0/)",
      "source": "https://sketchfab.com/3d-models/stylized-wooden-human-statue-ba5f410c8201431f9db031eb799dddbe",
      "title": "Stylized Wooden Human Statue"
    },
    "generator": "Sketchfab-16.68.0",
    "version": "2.0"
  },
  "bufferViews": [
    {
      "buffer": 0,
      "byteLength": 5990976,
      "name": "floatBufferViews",
      "target": 34963
    },
    {
      "buffer": 0,
      "byteLength": 9938304,
      "byteOffset": 5990976,
      "byteStride": 8,
      "name": "floatBufferViews",
      "target": 34962
    },
    {
      "buffer": 0,
      "byteLength": 7453728,
      "byteOffset": 15929280,
      "byteStride": 12,
      "name": "floatBufferViews",
      "target": 34962
    },
    {
      "buffer": 0,
      "byteLength": 4969152,
      "byteOffset": 23383008,
      "byteStride": 16,
      "name": "floatBufferViews",
      "target": 34962
    }
  ],
  "buffers": [
    {
      "byteLength": 28352160,
      "uri": "scene.bin"
    }
  ],
  "extensionsUsed": [
    "KHR_materials_specular"
  ],
  "images": [
    {
      "uri": "textures/Material.001_baseColor.png"
    },
    {
      "uri": "textures/Material.001_metallicRoughness.png"
    },
    {
      "uri": "textures/Material.001_normal.png"
    }
  ],
  "materials": [
    {
      "doubleSided": true,
      "extensions": {
        "KHR_materials_specular": {
          "specularColorFactor": [
            1.0,
            1.0,
            1.0
          ],
          "specularFactor": 1.0
        }
      },
      "name": "Material.001",
      "normalTexture": {
        "index": 2,
        "texCoord": 2
      },
      "pbrMetallicRoughness": {
        "baseColorTexture": {
          "index": 0
        },
        "metallicFactor": 0.0,
        "metallicRoughnessTexture": {
          "index": 1,
          "texCoord": 1
        }
      }
    }
  ],
  "meshes": [
    {
      "name": "Object_0",
      "primitives": [
        {
          "attributes": {
            "NORMAL": 1,
            "POSITION": 0,
            "TANGENT": 2,
            "TEXCOORD_0": 3,
            "TEXCOORD_1": 4,
            "TEXCOORD_2": 5,
            "TEXCOORD_3": 6
          },
          "indices": 7,
          "material": 0,
          "mode": 4
        }
      ]
    },
    {
      "name": "Object_1",
      "primitives": [
        {
          "attributes": {
            "NORMAL": 9,
            "POSITION": 8,
            "TANGENT": 10,
            "TEXCOORD_0": 11,
            "TEXCOORD_1": 12,
            "TEXCOORD_2": 13,
            "TEXCOORD_3": 14
          },
          "indices": 15,
          "material": 0,
          "mode": 4
        }
      ]
    },
    {
      "name": "Object_2",
      "primitives": [
        {
          "attributes": {
            "NORMAL": 17,
            "POSITION": 16,
            "TANGENT": 18,
            "TEXCOORD_0": 19,
            "TEXCOORD_1": 20,
            "TEXCOORD_2": 21,
            "TEXCOORD_3": 22
          },
          "indices": 23,
          "material": 0,
          "mode": 4
        }
      ]
    },
    {
      "name": "Object_3",
      "primitives": [
        {
          "attributes": {
            "NORMAL": 25,
            "POSITION": 24,
            "TANGENT": 26,
            "TEXCOORD_0": 27,
            "TEXCOORD_1": 28,
            "TEXCOORD_2": 29,
            "TEXCOORD_3": 30
          },
          "indices": 31,
          "material": 0,
          "mode": 4
        }
      ]
    },
    {
      "name": "Object_4",
      "primitives": [
        {
          "attributes": {
            "NORMAL": 33,
            "POSITION": 32,
            "TANGENT": 34,
            "TEXCOORD_0": 35,
            "TEXCOORD_1": 36,
            "TEXCOORD_2": 37,
            "TEXCOORD_3": 38
          },
          "indices": 39,
          "material": 0,
          "mode": 4
        }
      ]
    }
  ],
  "nodes": [
    {
      "children": [
        1
      ],
      "matrix": [
        1.0,
        0.0,
        0.0,
        0.0,
        0.0,
        2.220446049250313e-16,
        -1.0,
        0.0,
        0.0,
        1.0,
        2.220446049250313e-16,
        0.0,
        0.0,
        0.0,
        0.0,
        1.0
      ],
      "name": "Sketchfab_model"
    },
    {
      "children": [
        2
      ],
      "name": "root"
    },
    {
      "children": [
        3
      ],
      "matrix": [
        1.0,
        0.0,
        0.0,
        0.0,
        0.0,
        2.220446049250313e-16,
        1.0,
        0.0,
        0.0,
        -1.0,
        2.220446049250313e-16,
        0.0,
        0.0,
        0.0,
        0.0,
        1.0
      ],
      "name": "GLTF_SceneRootNode"
    },
    {
      "children": [
        4,
        5,
        6,
        7,
        8
      ],
      "matrix": [
        1.0,
        0.0,
        0.0,
        0.0,
        0.0,
        0.0,
        1.0,
        0.0,
        0.0,
        -1.0,
        0.0,
        0.0,
        0.0,
        0.0,
        0.0,
        1.0
      ],
      "name": "texture_pbr_v128_0"
    },
    {
      "mesh": 0,
      "name": "Object_4"
    },
    {
      "mesh": 1,
      "name": "Object_5"
    },
    {
      "mesh": 2,
      "name": "Object_6"
    },
    {
      "mesh": 3,
      "name": "Object_7"
    },
    {
      "mesh": 4,
      "name": "Object_8"
    }
  ],
  "samplers": [
    {
      "magFilter": 9729,
      "minFilter": 9987,
      "wrapS": 10497,
      "wrapT": 10497
    }
  ],
  "scene": 0,
  "scenes": [
    {
      "name": "Sketchfab_Scene",
      "nodes": [
        0
      ]
    }
  ],
  "textures": [
    {
      "sampler": 0,
      "source": 0
    },
    {
      "sampler": 0,
      "source": 1
    },
    {
      "sampler": 0,
      "source": 2
    }
  ]
}
